<?xml version="1.0" standalone="no"?>
<!DOCTYPE svg PUBLIC "-//W3C//DTD SVG 20010904//EN"
 "http://www.w3.org/TR/2001/REC-SVG-20010904/DTD/svg10.dtd">
<svg version="1.0" xmlns="http://www.w3.org/2000/svg"
 width="512.000000pt" height="512.000000pt" viewBox="0 0 512.000000 512.000000"
 preserveAspectRatio="xMidYMid meet">
<metadata>
Created by potrace 1.14, written by Peter Selinger 2001-2017
</metadata>
<g transform="translate(0.000000,512.000000) scale(0.100000,-0.100000)"
fill="#000000" stroke="none">
<path d="M0 2560 l0 -2560 227 2 226 3 18 80 c34 159 110 314 232 472 150 195
416 394 691 515 472 209 1026 281 1566 202 636 -92 1185 -395 1459 -804 97
-145 145 -257 173 -403 l13 -67 257 0 258 0 0 2560 0 2560 -2560 0 -2560 0 0
-2560z m4504 2128 c8 -13 -4 -37 -60 -120 -39 -57 -74 -109 -78 -116 -5 -8 19
-29 73 -63 84 -54 99 -74 81 -109 -17 -32 -55 -24 -136 31 -42 28 -77 49 -78
47 -16 -21 -82 -148 -132 -256 l-63 -135 37 -41 c102 -110 173 -254 180 -362
4 -65 2 -80 -22 -128 -56 -115 -153 -162 -310 -153 -50 3 -113 13 -140 23 -35
12 -51 14 -54 6 -5 -17 -182 -324 -204 -355 -16 -22 -27 -27 -52 -25 -55 5
-47 38 50 204 47 82 97 167 109 188 l22 39 -51 42 c-113 91 -197 230 -237 388
-24 95 -19 117 27 117 29 0 41 -23 79 -144 17 -53 47 -116 75 -160 46 -71 135
-160 150 -151 11 7 136 265 189 391 l43 101 -66 89 c-132 178 -151 329 -55
437 84 97 190 103 381 23 12 -6 26 7 59 56 100 149 109 159 142 156 16 -2 35
-11 41 -20z m-1741 -1262 c156 -46 270 -116 387 -236 254 -260 319 -656 161
-985 -113 -236 -324 -411 -573 -474 -405 -103 -820 88 -1011 466 -71 139 -103
359 -78 518 39 239 178 460 374 594 71 49 202 106 282 124 39 9 79 18 90 21
11 3 79 3 150 2 105 -3 147 -9 218 -30z"/>
<path d="M3983 4441 c-49 -31 -68 -67 -67 -130 0 -66 26 -128 86 -210 l42 -58
57 121 c31 67 72 149 92 183 l35 62 -56 22 c-82 31 -149 35 -189 10z"/>
<path d="M4062 3850 c-26 -66 -96 -218 -150 -327 l-61 -120 37 -12 c59 -19
172 -25 221 -11 56 15 105 63 122 119 11 38 11 53 -4 110 -18 68 -73 170 -125
231 l-30 35 -10 -25z"/>
<path d="M1810 2770 c0 -27 25 -120 41 -151 27 -54 72 -86 151 -110 86 -26
189 -22 266 11 60 26 87 53 105 105 l14 40 110 3 110 3 18 -41 c27 -59 74 -96
156 -121 118 -36 267 -12 337 53 22 21 52 104 66 181 l7 37 -302 0 -301 0 4
-25 5 -25 -99 0 -98 0 6 25 6 25 -301 0 c-184 0 -301 -4 -301 -10z"/>
</g>
</svg>
